<?xml version="1.0" standalone="no"?><!DOCTYPE svg PUBLIC "-//W3C//DTD SVG 1.1//EN" "http://www.w3.org/Graphics/SVG/1.1/DTD/svg11.dtd"><svg t="1615612601894" class="icon" viewBox="0 0 1024 1024" version="1.1" xmlns="http://www.w3.org/2000/svg" p-id="15305" xmlns:xlink="http://www.w3.org/1999/xlink" width="16" height="16"><defs><style type="text/css"></style></defs><path d="M896 181.333333a32 32 0 0 1 4.352 63.701334L896 245.333333H128a32 32 0 0 1-4.352-63.701333L128 181.333333h768zM640 480a32 32 0 0 1 4.352 63.701333L640 544H128a32 32 0 0 1-4.352-63.701333L128 480h512zM810.666667 778.666667a32 32 0 0 1 4.352 63.701333L810.666667 842.666667H128a32 32 0 0 1-4.352-63.701334L128 778.666667h682.666667z" p-id="15306" fill="#707070"></path></svg>