<?xml version="1.0" standalone="no"?><!DOCTYPE svg PUBLIC "-//W3C//DTD SVG 1.1//EN" "http://www.w3.org/Graphics/SVG/1.1/DTD/svg11.dtd"><svg t="1615825217432" class="icon" viewBox="0 0 1024 1024" version="1.1" xmlns="http://www.w3.org/2000/svg" p-id="6779" xmlns:xlink="http://www.w3.org/1999/xlink" width="16" height="16"><defs><style type="text/css"></style></defs><path d="M506.268657 966.686567c-240.716418 0-437.492537-194.865672-437.492538-435.582089S263.641791 97.432836 506.268657 97.432836c21.014925 0 38.208955 17.19403 38.208955 38.208955v359.164179h361.074627c21.014925 0 38.208955 17.19403 38.208955 38.208955 0 238.80597-196.776119 433.671642-437.492537 433.671642z m-38.208956-790.925373c-181.492537 19.104478-322.865672 171.940299-322.865671 355.343284 0 196.776119 162.38806 359.164179 361.074627 359.164179 185.313433 0 340.059701-139.462687 359.164179-320.955224H506.268657c-21.014925 0-38.208955-17.19403-38.208956-38.208955V175.761194z" fill="#707070" p-id="6780"></path><path d="M947.58209 452.776119H613.253731c-15.283582 0-28.656716-13.373134-28.656716-28.656716V87.880597c0-15.283582 13.373134-28.656716 28.656716-28.656716 200.597015 0 362.985075 164.298507 362.985075 366.80597 0 15.283582-13.373134 26.746269-28.656716 26.746268z m-305.671642-57.313432H917.014925C903.641791 248.358209 787.104478 131.820896 641.910448 116.537313v278.925374z" fill="#707070" p-id="6781"></path></svg>