<?xml version="1.0" standalone="no"?><!DOCTYPE svg PUBLIC "-//W3C//DTD SVG 1.1//EN" "http://www.w3.org/Graphics/SVG/1.1/DTD/svg11.dtd"><svg t="1615817790997" class="icon" viewBox="0 0 1024 1024" version="1.1" xmlns="http://www.w3.org/2000/svg" p-id="3114" xmlns:xlink="http://www.w3.org/1999/xlink" width="16" height="16"><defs><style type="text/css"></style></defs><path d="M512.859429 938.002286c234.422857 0 425.142857-190.72 425.142857-425.142857 0-222.866286-177.865143-408.868571-395.574857-424.722286-24.868571-2.139429-43.702857 13.293714-43.702858 35.145143 0 19.291429 13.714286 35.145143 38.564572 37.302857 187.282286 13.275429 327.862857 169.691429 327.862857 352.274286 0 197.577143-155.154286 352.713143-352.292571 352.713142-183.003429 0-339.437714-140.580571-352.731429-328.283428-2.121143-24.429714-17.974857-38.582857-37.266286-38.582857-21.869714 0-36.864 19.291429-34.724571 43.721143 15.872 218.148571 201.435429 395.574857 424.722286 395.574857z m-31.707429-409.289143c22.272 0 38.125714-16.274286 38.125714-37.705143 0-9.874286-4.699429-20.150857-12.434285-27.867429l-223.268572-223.268571-82.285714-73.307429c47.561143 6.016 107.574857 5.577143 128.566857 5.577143 19.291429 0 34.724571-15.853714 34.724571-35.145143a34.56 34.56 0 0 0-34.724571-34.706285H136.996571c-27.849143 0-43.282286 14.994286-43.282285 43.282285v192.420572c0 19.291429 15.433143 34.724571 34.285714 34.724571A34.834286 34.834286 0 0 0 162.742857 337.993143c0-20.132571 0-84.425143-4.297143-128.548572l72.429715 82.706286 223.707428 224.128c8.155429 8.155429 17.152 12.434286 26.587429 12.434286z" p-id="3115" fill="#dbdbdb"></path></svg>