<svg width="32" height="32" xmlns="http://www.w3.org/2000/svg" preserveAspectRatio="xMidYMid meet">
    <g>
        <title>background</title>
        <rect fill="none" id="canvas_background" height="9.99999" width="9.99999" y="-1" x="-1"/>
    </g>

    <g>
        <title>Layer 1</title>
        <g id="svg_1" fill="#000000" transform="translate(0,216) scale(0.10000000149011612,-0.10000000149011612) ">
            <path id="svg_2"
                  d="m216.71739,2160.09906c-12.24758,-4.45367 -21.15491,-9.38451 -34.19778,-18.92807c-25.76763,-19.08712 -37.37894,-32.9253 -50.10373,-59.64727c-13.20192,-27.67634 -17.49653,-48.99029 -12.88381,-64.89623c1.43156,-4.93084 3.65838,-10.17979 4.77178,-11.77041c1.59061,-2.22682 1.74965,-3.65838 0.47717,-5.8852c-1.59061,-2.38588 -0.79529,-3.81744 4.45367,-9.22545l6.20332,-6.36235l-3.02213,-6.04424c-1.74965,-3.18119 -10.49791,-13.361 -19.40526,-22.58643c-14.79254,-15.26969 -24.33608,-29.10786 -24.33608,-35.31118c0,-3.02213 6.68051,-9.22545 10.02073,-9.22545c1.43156,0 2.70402,-0.95436 2.70402,-2.22682c0,-1.1134 2.06777,-3.02213 4.77178,-4.13555c2.70402,-1.1134 4.77178,-2.38588 4.77178,-3.02213c0,-0.47717 -17.49653,-11.29321 -38.65144,-23.85891c-44.85474,-26.88104 -58.37482,-35.31118 -58.37482,-37.06083c0,-2.70402 19.24618,5.0899 69.66803,28.31255c33.72058,15.58782 55.03455,24.49516 57.42045,24.17702c3.4993,-0.47717 4.61272,-2.06777 8.43014,-14.79254c2.54496,-7.79391 6.04424,-22.42737 8.11203,-32.28905c1.90871,-9.86168 4.29461,-17.81465 5.0899,-17.49653c2.86307,0.79529 1.43156,27.04009 -2.38588,46.2863c-3.02213,16.06499 -3.34026,19.08712 -1.43156,20.35962c2.70402,1.74965 4.77178,1.74965 7.47578,0c2.70402,-1.74965 6.52141,-25.13138 7.79391,-48.195c0.95436,-19.24618 2.38588,-24.65421 5.0899,-20.51864c2.54496,3.81744 3.81744,28.31255 2.70402,48.83123l-0.95436,19.40526l4.13555,0.95436c2.38588,0.63623 7.31672,3.4993 10.9751,6.52141c4.61272,3.81744 7.47578,5.24895 10.02073,4.45367c4.45367,-1.1134 10.65698,2.86307 14.63348,9.54356c4.13555,6.52141 3.97649,11.29321 -0.15906,18.13276c-1.90871,3.02213 -3.18119,5.72615 -2.86307,5.8852c0.31811,0.31811 13.52006,6.83957 29.26692,14.63348c22.90454,10.9751 30.22128,13.83817 36.42462,14.15629c6.36235,0.15906 8.58922,1.1134 11.77041,4.77178c7.31672,8.58922 0.47717,21.15491 -10.65698,19.24618c-6.20332,-0.95436 -11.29321,-4.93084 -11.29321,-8.90733c0,-1.90871 -9.22545,-6.99862 -32.12999,-18.13276c-17.81465,-8.43014 -33.24341,-15.26969 -34.35683,-15.26969c-3.4993,0 -32.60718,21.47303 -36.58368,26.88104c-3.97649,5.40801 -3.34026,7.95297 2.70402,13.52006c3.97649,3.65838 4.13555,5.40801 0.95436,8.90733c-2.22682,2.38588 -1.59061,3.34026 6.99862,10.17979c11.29321,8.74828 31.01659,31.81187 42.30982,49.46748c19.24618,29.90317 42.62792,92.89069 35.94743,96.86718c-3.34026,2.22682 -33.87966,-26.24481 -76.03038,-70.78143c-7.31672,-7.63485 -14.15629,-12.24758 -15.74688,-10.49791c-2.06777,1.90871 4.61272,15.90594 14.31534,30.38034c5.8852,8.90733 17.01936,21.9502 29.10786,34.03872c10.81604,10.81604 19.56432,20.20055 19.56432,20.8368c0,1.1134 -4.29461,3.65838 -5.24895,3.18119c-0.15906,0 -3.97649,-1.27248 -8.27108,-2.86307l0,0l0.00002,0l-0.00006,-0.00008l0.00002,-0.00002l0.00002,-0.00004zm-16.8603,-23.69985c-19.24618,-19.88243 -31.17565,-37.06083 -36.42462,-52.64865c-4.29461,-12.24758 -3.18119,-16.06499 4.45367,-16.06499c6.52141,0 13.04288,5.24895 33.72058,27.35821c22.10925,23.38175 51.37619,52.33054 52.17148,51.37619c1.27248,-1.27248 -8.58922,-29.74411 -15.90594,-46.12722c-15.74688,-35.15212 -32.12999,-59.01103 -54.71644,-80.16596c-16.38313,-15.26969 -21.31397,-17.65559 -36.58368,-17.65559c-11.29321,0 -12.40664,0.31811 -16.54219,4.77178c-13.361,14.31534 -4.93084,57.89762 17.01936,88.91419c14.95157,21.15491 36.58368,40.56015 56.62514,51.21711c6.36235,3.34026 11.77041,6.20332 12.08852,6.20332c0.31811,0 -6.83957,-7.63485 -15.90594,-17.17842l0,0l0,0l0.00002,0.00002l0.00002,0zm82.07464,-152.3789c-3.65838,-3.65838 -2.38588,-7.63485 2.86307,-8.27108c5.0899,-0.63623 7.31672,3.34026 4.45367,7.79391c-0.95436,1.74965 -1.1134,3.02213 -0.15906,3.02213c2.22682,0 4.93084,-5.8852 3.81744,-8.58922c-1.1134,-3.02213 -7.31672,-4.93084 -11.77041,-3.65838c-1.90871,0.47717 -15.26969,-5.24895 -35.15212,-14.95157c-17.65559,-8.74828 -32.4481,-15.42875 -32.9253,-14.95157c-0.47717,0.31811 13.83817,7.79391 31.65282,16.38313c29.26692,14.15629 32.60718,16.22405 34.35683,20.67772c0.95436,2.86307 2.54496,5.0899 3.65838,5.0899c1.1134,0 0.79529,-1.1134 -0.79529,-2.54496l0,0l0,0.00002l-0.00002,0l-0.00002,0l0,-0.00002zm-152.8561,-87.95985c0.47717,-0.79529 -2.54496,-2.86307 -6.83957,-4.77178c-4.29461,-1.74965 -22.26831,-10.02073 -40.08296,-18.4509c-17.65559,-8.27108 -32.4481,-14.79254 -32.76624,-14.47442c-0.47717,0.31811 10.65698,6.83957 24.49516,14.31534c13.83817,7.47578 29.10786,16.06499 33.87966,19.08712c8.58922,5.40801 19.40526,7.47578 21.31397,4.29461l0,0l0,0l-0.00002,0l-0.00002,0.00002l0.00002,0z"/>
            <path id="svg_3"
                  d="m126.84885,2024.73949c0,-11.29321 7.79391,-20.67772 10.33885,-12.56569c1.59061,5.0899 -3.4993,17.33747 -7.31672,17.33747c-2.38588,0 -3.02213,-1.1134 -3.02213,-4.77178l0,0l0,0.00002l0,-0.00002z"/>
            <path id="svg_4"
                  d="m156.59296,2024.58044c-2.38588,-1.90871 -5.40801,-5.24895 -6.68051,-7.79391c-1.90871,-3.65838 -1.90871,-4.77178 0.15906,-7.79391c3.4993,-4.93084 8.27108,-4.13555 15.26969,3.02213c4.77178,4.77178 6.20332,7.15766 5.72615,10.65698c-0.31811,3.65838 -1.27248,4.45367 -5.24895,4.77178c-2.86307,0.31811 -6.52141,-0.79529 -9.22545,-2.86307l0,0l0.00002,-0.00002l0,0.00002z"/>
        </g>
    </g>
</svg>