<svg width="15" height="15" xmlns="http://www.w3.org/2000/svg" preserveAspectRatio="xMidYMid meet">
    <g stroke="null">
        <title>background</title>
        <rect x="-1" y="-1" width="17" height="17" id="canvas_background" fill="none" stroke="null"/>
    </g>

    <g stroke="null">
        <title>Layer 1</title>
        <g stroke="null" transform="translate(0,216) scale(0.10000000149011612,-0.10000000149011612) " fill="#ffffff" id="svg_1">
            <path stroke="null" d="m102.01547,2163.44863c-6.07538,-2.20923 -10.49384,-4.65516 -16.96372,-9.38922c-12.78197,-9.46812 -18.54173,-16.33251 -24.85383,-29.58788c-6.54878,-13.72878 -8.67911,-24.30151 -6.39098,-32.19161c0.71012,-2.44593 1.81473,-5.04966 2.36703,-5.83868c0.78902,-1.10461 0.86791,-1.81473 0.2367,-2.91934c-0.78902,-1.18351 -0.3945,-1.89363 2.20923,-4.57626l3.07714,-3.15603l-1.49912,-2.99823c-0.86791,-1.57802 -5.20746,-6.62769 -9.62593,-11.20394c-7.3378,-7.57449 -12.07185,-14.43888 -12.07185,-17.51602c0,-1.49912 3.31385,-4.57626 4.97076,-4.57626c0.71012,0 1.34132,-0.47341 1.34132,-1.10461c0,-0.5523 1.02571,-1.49912 2.36703,-2.05143c1.34132,-0.5523 2.36703,-1.18351 2.36703,-1.49912c0,-0.2367 -8.67911,-5.60197 -19.17295,-11.83515c-22.25008,-13.33427 -28.95668,-17.51602 -28.95668,-18.38393c0,-1.34132 9.54702,2.52483 34.55865,14.04437c16.72701,7.7323 27.29975,12.15076 28.48327,11.99295c1.73582,-0.2367 2.28813,-1.02571 4.18175,-7.3378c1.26242,-3.86615 2.99823,-11.12504 4.02395,-16.0169c0.94681,-4.89186 2.13033,-8.83691 2.52483,-8.67911c1.42022,0.3945 0.71012,13.41317 -1.18351,22.9602c-1.49912,7.969 -1.65693,9.46812 -0.71012,10.09934c1.34132,0.86791 2.36703,0.86791 3.70834,0c1.34132,-0.86791 3.23493,-12.46636 3.86615,-23.90701c0.47341,-9.54702 1.18351,-12.22966 2.52483,-10.17822c1.26242,1.89363 1.89363,14.04437 1.34132,24.22261l-0.47341,9.62593l2.05143,0.47341c1.18351,0.3156 3.62944,1.73582 5.44417,3.23493c2.28813,1.89363 3.70834,2.60373 4.97076,2.20923c2.20923,-0.5523 5.28637,1.42022 7.2589,4.73406c2.05143,3.23493 1.97253,5.60197 -0.0789,8.99471c-0.94681,1.49912 -1.57802,2.84044 -1.42022,2.91934c0.1578,0.1578 6.70659,3.39275 14.51778,7.2589c11.36174,5.44417 14.99119,6.86439 18.06834,7.02219c3.15603,0.0789 4.26066,0.5523 5.83868,2.36703c3.62944,4.26066 0.2367,10.49384 -5.28637,9.54702c-3.07714,-0.47341 -5.60197,-2.44593 -5.60197,-4.41846c0,-0.94681 -4.57626,-3.47165 -15.938,-8.99471c-8.83691,-4.18175 -16.49031,-7.57449 -17.04262,-7.57449c-1.73582,0 -16.17471,10.65164 -18.14724,13.33427c-1.97253,2.68263 -1.65693,3.94505 1.34132,6.70659c1.97253,1.81473 2.05143,2.68263 0.47341,4.41846c-1.10461,1.18351 -0.78902,1.65693 3.47165,5.04966c5.60197,4.33956 15.3857,15.7802 20.98768,24.53822c9.54702,14.83339 21.14547,46.07819 17.83163,48.05072c-1.65693,1.10461 -16.80592,-13.01867 -37.71468,-35.11095c-3.62944,-3.78725 -7.02219,-6.07538 -7.8112,-5.20746c-1.02571,0.94681 2.28813,7.8901 7.10109,15.07009c2.91934,4.41846 8.44241,10.88834 14.43888,16.88482c5.36527,5.36527 9.70483,10.02043 9.70483,10.33604c0,0.5523 -2.13033,1.81473 -2.60373,1.57802c-0.0789,0 -1.97253,-0.63121 -4.10285,-1.42022l0,0l0.00001,0l-0.00003,-0.00004l0.00001,-0.00001zm-8.36351,-11.75625c-9.54702,-9.86263 -15.4646,-18.38393 -18.06834,-26.11623c-2.13033,-6.07538 -1.57802,-7.969 2.20923,-7.969c3.23493,0 6.46989,2.60373 16.72701,13.57097c10.96724,11.59846 25.48503,25.95843 25.87953,25.48503c0.63121,-0.63121 -4.26066,-14.75449 -7.8901,-22.88129c-7.8112,-17.43712 -15.938,-29.27227 -27.14195,-39.76612c-8.12681,-7.57449 -10.57274,-8.75801 -18.14724,-8.75801c-5.60197,0 -6.15428,0.1578 -8.20571,2.36703c-6.62769,7.10109 -2.44593,28.71997 8.44241,44.10566c7.41669,10.49384 18.14724,20.11976 28.08876,25.40612c3.15603,1.65693 5.83868,3.07714 5.99648,3.07714c0.1578,0 -3.39275,-3.78725 -7.8901,-8.52131l0,0l0,0l0.00001,0.00001zm40.71292,-75.58717c-1.81473,-1.81473 -1.18351,-3.78725 1.42022,-4.10285c2.52483,-0.3156 3.62944,1.65693 2.20923,3.86615c-0.47341,0.86791 -0.5523,1.49912 -0.0789,1.49912c1.10461,0 2.44593,-2.91934 1.89363,-4.26066c-0.5523,-1.49912 -3.62944,-2.44593 -5.83868,-1.81473c-0.94681,0.2367 -7.57449,-2.60373 -17.43712,-7.41669c-8.75801,-4.33956 -16.0958,-7.65339 -16.33251,-7.41669c-0.2367,0.1578 6.86439,3.86615 15.7013,8.12681c14.51778,7.02219 16.17471,8.0479 17.04262,10.25713c0.47341,1.42022 1.26242,2.52483 1.81473,2.52483c0.5523,0 0.3945,-0.5523 -0.3945,-1.26242l0,0l0,0.00001l-0.00001,0l-0.00001,0zm-75.82388,-43.63226c0.2367,-0.3945 -1.26242,-1.42022 -3.39275,-2.36703c-2.13033,-0.86791 -11.04614,-4.97076 -19.88305,-9.15252c-8.75801,-4.10285 -16.0958,-7.3378 -16.25361,-7.18c-0.2367,0.1578 5.28637,3.39275 12.15076,7.10109c6.86439,3.70834 14.43888,7.969 16.80592,9.46812c4.26066,2.68263 9.62593,3.70834 10.57274,2.13033l0,0l0,0l-0.00001,0l-0.00001,0.00001z" id="svg_2"/>
            <path stroke="null" d="m57.43641,2096.30386c0,-5.60197 3.86615,-10.25713 5.12856,-6.23318c0.78902,2.52483 -1.73582,8.60021 -3.62944,8.60021c-1.18351,0 -1.49912,-0.5523 -1.49912,-2.36703l0,0l0,0.00001z" id="svg_3"/>
            <path stroke="null" d="m72.1909,2096.22496c-1.18351,-0.94681 -2.68263,-2.60373 -3.31385,-3.86615c-0.94681,-1.81473 -0.94681,-2.36703 0.0789,-3.86615c1.73582,-2.44593 4.10285,-2.05143 7.57449,1.49912c2.36703,2.36703 3.07714,3.55054 2.84044,5.28637c-0.1578,1.81473 -0.63121,2.20923 -2.60373,2.36703c-1.42022,0.1578 -3.23493,-0.3945 -4.57626,-1.42022l0,0l0.00001,-0.00001z" id="svg_4"/>
        </g>
    </g>
</svg>