<svg width="13" height="13" xmlns="http://www.w3.org/2000/svg" preserveAspectRatio="xMidYMid meet">
    <g>
        <title>background</title>
        <rect fill="none" id="canvas_background" height="15" width="15" y="-1" x="-1"/>
    </g>

    <g>
        <title>Layer 1</title>
        <g id="svg_1" fill="#ffffff" transform="translate(0,216) scale(0.10000000149011612,-0.10000000149011612) ">
            <path id="svg_2"
                  d="m85.96015,2166.01327c-5.25674,-1.91154 -9.07983,-4.02789 -14.67791,-8.12405c-11.05964,-8.19232 -16.04329,-14.13176 -21.50486,-25.60101c-5.66635,-11.87887 -7.50963,-21.02696 -5.52982,-27.85389c0.61443,-2.11635 1.5702,-4.36923 2.04808,-5.05194c0.6827,-0.95577 0.75096,-1.5702 0.20481,-2.52597c-0.6827,-1.02404 -0.34134,-1.63847 1.91154,-3.95962l2.66251,-2.73077l-1.29712,-2.59423c-0.75096,-1.36539 -4.50577,-5.73463 -8.32887,-9.69425c-6.34906,-6.55385 -10.44521,-12.49329 -10.44521,-15.15579c0,-1.29712 2.86732,-3.95962 4.30097,-3.95962c0.61443,0 1.16058,-0.40962 1.16058,-0.95577c0,-0.47788 0.8875,-1.29712 2.04808,-1.77501c1.16058,-0.47788 2.04808,-1.02404 2.04808,-1.29712c0,-0.20481 -7.50963,-4.84712 -16.58946,-10.2404c-19.25195,-11.53752 -25.05486,-15.15579 -25.05486,-15.90675c0,-1.16058 8.26059,2.18462 29.90198,12.15194c14.4731,6.6904 23.6212,10.51348 24.64524,10.37694c1.50192,-0.20481 1.97981,-0.8875 3.61827,-6.34906c1.09231,-3.3452 2.59423,-9.62598 3.48174,-13.85867c0.81923,-4.2327 1.84327,-7.64616 2.18462,-7.50963c1.22885,0.34134 0.61443,11.60579 -1.02404,19.86639c-1.29712,6.8952 -1.43366,8.19232 -0.61443,8.73849c1.16058,0.75096 2.04808,0.75096 3.20865,0c1.16058,-0.75096 2.79903,-10.78656 3.3452,-20.68562c0.40962,-8.26059 1.02404,-10.58175 2.18462,-8.80674c1.09231,1.63847 1.63847,12.15194 1.16058,20.95869l-0.40962,8.32887l1.77501,0.40962c1.02404,0.27307 3.14038,1.50192 4.71059,2.79903c1.97981,1.63847 3.20865,2.25289 4.30097,1.91154c1.91154,-0.47788 4.57405,1.22885 6.28079,4.09616c1.77501,2.79903 1.70674,4.84712 -0.06827,7.7827c-0.81923,1.29712 -1.36539,2.4577 -1.22885,2.52597c0.13654,0.13654 5.8029,2.93559 12.56156,6.28079c9.83078,4.71059 12.97118,5.93944 15.63369,6.07597c2.73077,0.06827 3.68655,0.47788 5.05194,2.04808c3.14038,3.68655 0.20481,9.07983 -4.57405,8.26059c-2.66251,-0.40962 -4.84712,-2.11635 -4.84712,-3.82309c0,-0.81923 -3.95962,-3.00386 -13.79041,-7.7827c-7.64616,-3.61827 -14.26829,-6.55385 -14.74618,-6.55385c-1.50192,0 -13.99522,9.21637 -15.70196,11.53752c-1.70674,2.32115 -1.43366,3.41347 1.16058,5.8029c1.70674,1.5702 1.77501,2.32115 0.40962,3.82309c-0.95577,1.02404 -0.6827,1.43366 3.00386,4.36923c4.84712,3.75482 13.31253,13.65387 18.15966,21.23177c8.26059,12.83464 18.29619,39.8693 15.42888,41.57604c-1.43366,0.95577 -14.54138,-11.26445 -32.63275,-30.37986c-3.14038,-3.27693 -6.07597,-5.25674 -6.75867,-4.50577c-0.8875,0.81923 1.97981,6.82693 6.14424,13.03944c2.52597,3.82309 7.30482,9.42117 12.49329,14.60964c4.64232,4.64232 8.39714,8.67021 8.39714,8.94329c0,0.47788 -1.84327,1.5702 -2.25289,1.36539c-0.06827,0 -1.70674,-0.54616 -3.55,-1.22885l0,0l0.00001,0l-0.00003,-0.00003l0.00001,-0.00001l0.00001,-0.00002zm-7.23655,-10.17213c-8.26059,-8.53367 -13.38079,-15.90675 -15.63369,-22.59715c-1.84327,-5.25674 -1.36539,-6.8952 1.91154,-6.8952c2.79903,0 5.59809,2.25289 14.4731,11.74233c9.48944,10.0356 22.051,22.46061 22.39235,22.051c0.54616,-0.54616 -3.68655,-12.76637 -6.82693,-19.79811c-6.75867,-15.08752 -13.79041,-25.32793 -23.48466,-34.40776c-7.03175,-6.55385 -9.1481,-7.5779 -15.70196,-7.5779c-4.84712,0 -5.32501,0.13654 -7.10002,2.04808c-5.73463,6.14424 -2.11635,24.85005 7.30482,38.16256c6.41731,9.07983 15.70196,17.40869 24.30389,21.98273c2.73077,1.43366 5.05194,2.66251 5.18847,2.66251c0.13654,0 -2.93559,-3.27693 -6.82693,-7.37309l0,0l0,0l0.00001,0.00001l0.00001,0zm35.22698,-65.40204c-1.5702,-1.5702 -1.02404,-3.27693 1.22885,-3.55c2.18462,-0.27307 3.14038,1.43366 1.91154,3.3452c-0.40962,0.75096 -0.47788,1.29712 -0.06827,1.29712c0.95577,0 2.11635,-2.52597 1.63847,-3.68655c-0.47788,-1.29712 -3.14038,-2.11635 -5.05194,-1.5702c-0.81923,0.20481 -6.55385,-2.25289 -15.08752,-6.41731c-7.5779,-3.75482 -13.92694,-6.62212 -14.13176,-6.41731c-0.20481,0.13654 5.93944,3.3452 13.5856,7.03175c12.56156,6.07597 13.99522,6.96347 14.74618,8.87501c0.40962,1.22885 1.09231,2.18462 1.5702,2.18462c0.47788,0 0.34134,-0.47788 -0.34134,-1.09231l0,0l0,0.00001l-0.00001,0l-0.00001,0l0,-0.00001zm-65.60686,-37.75295c0.20481,-0.34134 -1.09231,-1.22885 -2.93559,-2.04808c-1.84327,-0.75096 -9.55771,-4.30097 -17.20387,-7.91925c-7.5779,-3.55 -13.92694,-6.34906 -14.06349,-6.21252c-0.20481,0.13654 4.57405,2.93559 10.51348,6.14424c5.93944,3.20865 12.49329,6.8952 14.54138,8.19232c3.68655,2.32115 8.32887,3.20865 9.1481,1.84327l0,0l0,0l-0.00001,0l-0.00001,0.00001l0.00001,0z"/>
            <path id="svg_3"
                  d="m47.38798,2107.91605c0,-4.84712 3.3452,-8.87501 4.4375,-5.39328c0.6827,2.18462 -1.50192,7.44136 -3.14038,7.44136c-1.02404,0 -1.29712,-0.47788 -1.29712,-2.04808l0,0l0,0.00001l0,-0.00001z"/>
            <path id="svg_4"
                  d="m60.15435,2107.84778c-1.02404,-0.81923 -2.32115,-2.25289 -2.86732,-3.3452c-0.81923,-1.5702 -0.81923,-2.04808 0.06827,-3.3452c1.50192,-2.11635 3.55,-1.77501 6.55385,1.29712c2.04808,2.04808 2.66251,3.07212 2.4577,4.57405c-0.13654,1.5702 -0.54616,1.91154 -2.25289,2.04808c-1.22885,0.13654 -2.79903,-0.34134 -3.95962,-1.22885l0,0l0.00001,-0.00001l0,0.00001z"/>
        </g>
    </g>
</svg>