<?xml version="1.0" standalone="no"?>
<!DOCTYPE svg PUBLIC "-//W3C//DTD SVG 20010904//EN"
 "http://www.w3.org/TR/2001/REC-SVG-20010904/DTD/svg10.dtd">
<svg version="1.0" xmlns="http://www.w3.org/2000/svg"
 width="186.000000pt" height="216.000000pt" viewBox="0 0 186.000000 216.000000"
 preserveAspectRatio="xMidYMid meet">

<g transform="translate(0.000000,216.000000) scale(0.100000,-0.100000)"
fill="#000000" stroke="none">
<path d="M1305 2121 c-77 -28 -133 -59 -215 -119 -162 -120 -235 -207 -315
-375 -83 -174 -110 -308 -81 -408 9 -31 23 -64 30 -74 10 -14 11 -23 3 -37
-10 -15 -5 -24 28 -58 l39 -40 -19 -38 c-11 -20 -66 -84 -122 -142 -93 -96
-153 -183 -153 -222 0 -19 42 -58 63 -58 9 0 17 -6 17 -14 0 -7 13 -19 30 -26
17 -7 30 -15 30 -19 0 -3 -110 -71 -243 -150 -282 -169 -367 -222 -367 -233 0
-17 121 32 438 178 212 98 346 154 361 152 22 -3 29 -13 53 -93 16 -49 38
-141 51 -203 12 -62 27 -112 32 -110 18 5 9 170 -15 291 -19 101 -21 120 -9
128 17 11 30 11 47 0 17 -11 41 -158 49 -303 6 -121 15 -155 32 -129 16 24 24
178 17 307 l-6 122 26 6 c15 4 46 22 69 41 29 24 47 33 63 28 28 -7 67 18 92
60 26 41 25 71 -1 114 -12 19 -20 36 -18 37 2 2 85 43 184 92 144 69 190 87
229 89 40 1 54 7 74 30 46 54 3 133 -67 121 -39 -6 -71 -31 -71 -56 0 -12 -58
-44 -202 -114 -112 -53 -209 -96 -216 -96 -22 0 -205 135 -230 169 -25 34 -21
50 17 85 25 23 26 34 6 56 -14 15 -10 21 44 64 71 55 195 200 266 311 121 188
268 584 226 609 -21 14 -213 -165 -478 -445 -46 -48 -89 -77 -99 -66 -13 12
29 100 90 191 37 56 107 138 183 214 68 68 123 127 123 131 0 7 -27 23 -33 20
-1 0 -25 -8 -52 -18z m-106 -149 c-121 -125 -196 -233 -229 -331 -27 -77 -20
-101 28 -101 41 0 82 33 212 172 139 147 323 329 328 323 8 -8 -54 -187 -100
-290 -99 -221 -202 -371 -344 -504 -103 -96 -134 -111 -230 -111 -71 0 -78 2
-104 30 -84 90 -31 364 107 559 94 133 230 255 356 322 40 21 74 39 76 39 2 0
-43 -48 -100 -108z m516 -958 c-23 -23 -15 -48 18 -52 32 -4 46 21 28 49 -6
11 -7 19 -1 19 14 0 31 -37 24 -54 -7 -19 -46 -31 -74 -23 -12 3 -96 -33 -221
-94 -111 -55 -204 -97 -207 -94 -3 2 87 49 199 103 184 89 205 102 216 130 6
18 16 32 23 32 7 0 5 -7 -5 -16z m-961 -553 c3 -5 -16 -18 -43 -30 -27 -11
-140 -63 -252 -116 -111 -52 -204 -93 -206 -91 -3 2 67 43 154 90 87 47 183
101 213 120 54 34 122 47 134 27z"/>
<path d="M740 1270 c0 -71 49 -130 65 -79 10 32 -22 109 -46 109 -15 0 -19 -7
-19 -30z"/>
<path d="M927 1269 c-15 -12 -34 -33 -42 -49 -12 -23 -12 -30 1 -49 22 -31 52
-26 96 19 30 30 39 45 36 67 -2 23 -8 28 -33 30 -18 2 -41 -5 -58 -18z"/>
</g>
</svg>
