<?xml version="1.0" standalone="no"?><!DOCTYPE svg PUBLIC "-//W3C//DTD SVG 1.1//EN" "http://www.w3.org/Graphics/SVG/1.1/DTD/svg11.dtd"><svg t="1618241621355" class="icon" viewBox="0 0 1024 1024" version="1.1" xmlns="http://www.w3.org/2000/svg" p-id="2991" xmlns:xlink="http://www.w3.org/1999/xlink" width="16" height="16"><defs><style type="text/css"></style></defs><path d="M552 710c0 22.092-17.908 40-40 40s-40-17.908-40-40 17.908-40 40-40 40 17.908 40 40z m-40-206c-48.26 0-100.49 22.334-136.482 58.284l-28.3 28.268 56.536 56.6 28.3-28.268C453.272 597.692 486.596 584 514.016 584c27.1 0 58.32 13.694 79.538 34.886l28.3 28.268 56.536-56.6-28.3-28.268C614.094 526.332 559.938 504 512 504z m404-296v448c0 132.336-107.664 240-240 240h-124v128h-80v-128h-124c-132.336 0-240-107.664-240-240V208h200V0h80v208h248V0h80v208z m-80 80H188v368c0 88.224 71.776 160 160 160h328c88.224 0 160-71.776 160-160zM330.366 510.762c50.498-50.788 115.468-78.76 182.942-78.762 67.456-0.002 132.424 27.97 182.942 78.766l28.208 28.362 56.722-56.414-28.208-28.362c-65.642-66.004-150.76-102.354-239.668-102.352-88.926 0.002-174.042 36.352-239.668 102.356l-28.204 28.366 56.73 56.406z" p-id="2992" fill="#707070"></path></svg>